Title:
Prairie Love

Country:
USA/2011

Language:
English

No Subtitle

Director:
Dusty Bias

Writers:
Ashley Martin Bias, Dusty Bias

Stars:
Jeremy Clark, Holly Lynn Ellis, Garth Blomberg

Synopsis:
As a high plains drifter travels across the wintry North Dakota prairie, he finds a man lying unconscious in the middle of the road. After defrosting, the man explains that heΓÇÖs on his way to meet his penpal girlfriend for the first time, as sheΓÇÖs being released from prison. Desperate for a girlfriend of his own, the drifter hatches a plan to steal his new companionΓÇÖs identity.

Trivia:
Prairie Love was the first feature film from director Dusty Bias, and was an official selection at the 2011 Sundance Film Festival.

Imdb: 
http://www.imdb.com/title/tt1374996

Trailer:


Media Info:

General
Complete name                            : Prairie.Love.2011.BRrip.x264.HORIZON-ArtSubs.mkv
Format                                   : Matroska
Format version                           : Version 4 / Version 2
File size                                : 1 009 MiB
Duration                                 : 1h 20mn
Overall bit rate                         : 1 742 Kbps
Encoded date                             : UTC 2013-02-19 19:19:10
Writing application                      : mkvmerge v6.0.0 ('Coming Up For Air') built on Jan 20 2013 09:52:00
Writing library                          : libebml v1.3.0 + libmatroska v1.4.0

Video
ID                                       : 1
Format                                   : AVC
Format/Info                              : Advanced Video Codec
Format profile                           : High@L3.1
Format settings, CABAC                   : Yes
Format settings, ReFrames                : 8 frames
Codec ID                                 : V_MPEG4/ISO/AVC
Duration                                 : 1h 20mn
Bit rate                                 : 1 549 Kbps
Width                                    : 720 pixels
Height                                   : 364 pixels
Display aspect ratio                     : 2.35:1
Original display aspect ratio            : 2.35:1
Frame rate mode                          : Constant
Frame rate                               : 23.976 fps
Color space                              : YUV
Chroma subsampling                       : 4:2:0
Bit depth                                : 8 bits
Scan type                                : Progressive
Bits/(Pixel*Frame)                       : 0.247
Stream size                              : 878 MiB (87%)
Writing library                          : x264 core 129 r2245 bc13772
Encoding settings                        : cabac=1 / ref=8 / deblock=1:-3:-3 / analyse=0x3:0x133 / me=umh / subme=10 / psy=1 / psy_rd=1.00:0.00 / mixed_ref=1 / me_range=24 / chroma_me=1 / trellis=2 / 8x8dct=1 / cqm=0 / deadzone=21,11 / fast_pskip=0 / chroma_qp_offset=-2 / threads=3 / lookahead_threads=1 / sliced_threads=0 / nr=0 / decimate=0 / interlaced=0 / bluray_compat=0 / constrained_intra=0 / bframes=5 / b_pyramid=2 / b_adapt=2 / b_bias=0 / direct=3 / weightb=1 / open_gop=0 / weightp=2 / keyint=240 / keyint_min=23 / scenecut=40 / intra_refresh=0 / rc_lookahead=100 / rc=2pass / mbtree=1 / bitrate=1549 / ratetol=1.0 / qcomp=0.60 / qpmin=0 / qpmax=69 / qpstep=4 / cplxblur=20.0 / qblur=0.5 / ip_ratio=1.40 / aq=1:1.00
Language                                 : English
Default                                  : Yes
Forced                                   : No

Audio
ID                                       : 2
Format                                   : AC-3
Format/Info                              : Audio Coding 3
Mode extension                           : CM (complete main)
Format settings, Endianness              : Big
Codec ID                                 : A_AC3
Duration                                 : 1h 20mn
Bit rate mode                            : Constant
Bit rate                                 : 192 Kbps
Channel(s)                               : 2 channels
Channel positions                        : Front: L R
Sampling rate                            : 48.0 KHz
Bit depth                                : 16 bits
Compression mode                         : Lossy
Stream size                              : 111 MiB (11%)
Default                                  : Yes
Forced                                   : No

